<svg width="285" height="62" viewBox="0 0 285 62" fill="none" xmlns="http://www.w3.org/2000/svg">
<path fill-rule="evenodd" clip-rule="evenodd" d="M271.367 7.23342C272.573 6.9314 272.498 2.86257 271.367 2.86257C271.258 2.23337 270.99 1.18471 270.27 0.99175C270.27 0.857521 268.596 0.782017 268.42 1.06725C267.719 1.6401 267.097 2.30298 266.569 3.03875C266.05 3.50863 265.708 4.14212 265.598 4.83407C265.598 5.26192 265.313 5.37937 265.313 5.673C264.685 6.10086 264.894 7.09919 264.894 7.81228C264.894 8.52538 264.643 8.75189 264.643 9.18814C264.434 9.18814 264.643 11.0506 264.643 11.361C264.643 11.6714 264.601 14.2385 264.241 14.2385C264.241 15.2285 263.739 15.6395 263.739 16.3862C264.099 16.3862 262.96 18.6345 263.069 18.9617C263.906 18.9617 263.739 22.9886 263.069 22.9886C263.069 23.5759 263.295 24.3393 262.734 24.5322C262.692 24.6161 261.947 25.7319 262.148 25.7319C262.01 26.5184 261.982 27.3203 262.064 28.1145C262.202 28.8809 262.256 29.6602 262.223 30.4383C262.776 30.9165 263.37 31.2018 262.767 31.9065C262.165 32.6112 261.093 33.2152 260.875 34.2219C260.574 34.2219 262.173 37.0408 261.553 37.0408C261.453 37.7622 260.959 38.1481 260.959 38.7186C260.682 38.7186 260.339 40.2707 260.297 40.5223C259.51 41.1851 259.703 41.6549 259.703 42.7455C259.387 43.1335 259.107 43.5491 258.865 43.9871C258.706 44.9016 259.334 45.1449 259.334 45.7489C259.962 46.0509 260.515 47.1247 261.277 47.1583C262.015 47.2719 262.758 47.3419 263.504 47.368C264.819 47.2086 265.288 46.0257 266.318 45.2288C266.407 44.9078 266.519 44.5938 266.653 44.2891C266.829 44.2891 266.653 43.123 266.653 42.9636C266.653 42.67 266.653 41.3697 266.963 41.3697C266.963 40.5307 267.457 39.6918 267.214 38.8025C267.08 38.8025 266.686 36.9988 267.038 36.9988C267.038 35.5475 268.637 34.3897 268.637 32.9635C269.257 32.9635 270.136 30.2286 269.659 30.2286C269.15 29.4518 268.59 28.7091 267.984 28.0054C268.021 27.651 268.129 27.3077 268.301 26.9962C268.474 26.6847 268.708 26.4116 268.989 26.1933C269.609 25.3544 268.847 25.2873 268.562 24.5155C268.562 23.7772 268.763 21.856 269.743 21.856C270.228 21.2268 269.291 20.5893 269.475 19.8594C269.81 18.5674 272.305 17.4013 270.589 15.9416C269.994 15.1026 270.589 14.9768 270.756 14.2217C270.864 13.0533 270.892 11.8789 270.84 10.7066C271.325 10.7653 271.284 7.71161 271.367 7.23342ZM32.2386 24.0121C32.2386 23.1732 31.2254 22.2671 30.5638 21.6966C30.5638 20.9919 29.3078 20.4466 29.1236 19.7084C28.5989 19.2781 28.1685 18.744 27.8591 18.1396C27.3735 17.46 26.444 17.6278 25.7573 17.6278C24.5096 17.6278 23.2452 17.5607 22.0645 17.46C21.4368 17.756 20.7838 17.9946 20.1134 18.1731C19.41 18.4919 18.9244 17.6782 18.2042 17.8292C16.8058 18.1228 17.4338 20.6312 18.0116 21.1849C18.6365 21.5741 19.3212 21.8576 20.0381 22.0238C20.0381 22.1916 21.7128 22.1245 21.9808 22.1245C21.9808 22.1245 22.6758 22.7034 22.8181 22.804C22.8181 23.643 24.6687 24.4819 24.6687 25.3208C25.3973 25.3208 24.92 29.1799 24.92 29.7001C24.7525 29.7001 24.8278 32.6783 24.8278 33.0558C24.8278 33.7857 24.585 34.5323 24.585 35.0273C24.1747 35.237 24.25 36.2689 24.25 36.6548C24.0486 36.9001 23.9029 37.1864 23.823 37.4938C23.2871 37.4938 23.5802 39.6666 22.9856 40.0106C22.9856 41.4787 22.3157 41.1096 21.6374 42.1499C20.6828 42.8797 21.0764 43.8949 21.7128 44.6667C21.83 44.6667 22.3911 44.8345 22.3911 44.9267C22.8684 44.9267 23.5215 44.7506 23.9905 44.7506C24.3307 44.2536 24.7238 43.7951 25.1628 43.3831C25.7408 42.4784 26.4523 41.6666 27.273 40.9754C27.273 40.3042 27.9261 39.9686 28.4034 39.3982C28.8314 38.8418 29.3233 38.3378 29.8688 37.8965C29.9442 37.6112 30.949 35.0693 30.9658 35.0693C31.3677 33.0978 32.0544 31.143 32.0544 28.8863C32.6489 28.7605 32.0879 24.0121 32.2386 24.0121ZM11.9742 22.6866C11.9007 21.9587 11.7577 21.2395 11.5471 20.5389C10.9609 20.0272 10.6344 18.3996 9.78024 18.3996C9.63788 18.0808 8.88425 17.7956 8.52418 17.7117C8.52418 16.7469 6.28002 18.9282 6.30514 18.9114C5.58319 19.5294 5.10024 20.3814 4.94022 21.3191C3.80139 21.898 5.48451 27.9132 4.27032 27.9132C4.16146 28.2487 4.9151 29.9685 4.27032 29.9685C4.23526 30.2722 4.08174 30.5497 3.84326 30.7404C3.68396 31.8795 3.62791 33.0307 3.67579 34.18C3.7679 34.7505 3.51669 34.7924 3.51669 35.279C3.2236 35.279 3.10637 37.2505 2.91378 37.2505C2.84971 37.5185 2.70676 37.7611 2.50346 37.9468V42.5609C2.50346 43.7187 2.91378 44.5576 2.00104 45.3126C1.84194 45.9502 1.81682 46.6382 1.66609 47.2841C0.74498 47.9888 0.828718 49.0543 0.65287 50.1114C-0.427342 50.6734 0.234183 55.4805 0.234183 56.7725C0.234183 57.754 -0.159384 60.0276 0.418403 60.7658C0.996191 61.5041 2.15177 61.093 2.93052 61.093C4.37918 61.093 5.49289 60.6651 5.59337 59.1131C5.59337 58.7859 6.10417 56.9654 6.43074 56.9654C6.55271 55.5426 6.57789 54.1131 6.50611 52.6869C6.33863 52.6869 6.20466 52.0996 6.15441 51.9402C5.97019 51.3194 6.43075 51.1013 6.80756 50.6734C7.43442 50.1688 7.9845 49.5753 8.44044 48.9117C9.09359 48.9117 9.8556 47.4268 10.4501 47.1247C11.2205 46.0257 10.7935 45.4469 9.78024 44.7086C9.28619 43.7019 7.67006 44.1969 8.18923 42.6616C10.8605 42.0492 7.83753 39.7421 9.36993 38.7102C9.36993 38.1398 9.13546 36.873 9.42017 36.3277C9.63043 35.8278 9.91254 35.3615 10.2575 34.9434C10.1989 33.9367 9.60439 33.9954 9.74675 32.9719C10.5422 32.435 10.2575 31.2437 10.2575 30.2538C10.2575 29.8846 10.4669 28.6766 10.9274 28.6766C10.9274 28.2319 11.0112 27.737 11.0112 27.3846C10.8102 27.586 12.5436 26.2017 11.6894 26.2017C11.6392 25.8829 13.2218 22.6866 11.9742 22.6866ZM128.428 1.60417C127.942 0.454832 126.292 0.907855 125.288 0.907855C124.04 0.907855 124.207 2.00686 123.462 2.66123C122.382 3.63439 122.926 4.67467 122.792 6.05891C122.628 6.11036 122.477 6.19967 122.353 6.31971C122.229 6.43974 122.135 6.58718 122.078 6.75022C122.021 6.91327 122.003 7.0874 122.025 7.2587C122.047 7.43001 122.109 7.59373 122.206 7.73678C121.955 7.55221 123.043 8.42471 122.884 8.42471C122.884 9.41465 122.047 9.62438 122.047 10.5975C122.047 11.21 121.829 16.7302 121.712 16.7302C121.472 17.5425 121.134 18.3228 120.707 19.054C120.565 19.5322 120.883 20.2788 120.883 20.7822V22.653C120.741 22.653 120.615 23.3242 120.615 23.492C120.18 23.492 120.297 25.2621 120.297 25.5222C120.297 26.6548 119.769 26.3108 119.459 27.2001V29.2554C119.459 30.1951 119.041 30.2202 118.873 31.0592C118.765 32.278 118.737 33.5027 118.79 34.7253C118.79 35.7068 118.94 38.3998 118.027 38.8529C118.163 40.1391 117.839 41.4319 117.115 42.5022C116.277 43.7019 116.755 47.0157 118.505 47.1751C119.244 47.2255 119.985 47.2255 120.724 47.1751C121.704 47.1164 122.574 45.2539 123.077 45.2539C123.075 44.4082 123.162 43.5645 123.336 42.7371C124.174 42.0324 123.948 41.2942 123.998 40.1616C124.35 39.0626 124.777 38.5676 124.735 37.4183C124.693 36.5793 124.735 35.4803 124.735 34.7505C126.276 33.5005 124.216 30.1363 126.25 29.4316C126.25 29.5491 127.607 27.5608 126.837 27.5608C126.739 27.0799 126.683 26.5915 126.669 26.1011C126.837 26.1011 127.557 24.2051 127.925 23.9618C128.034 23.5339 129.282 21.3779 127.766 21.3779C127.063 20.4466 127.507 20.4131 127.85 19.3141C127.85 18.3241 127.925 17.2 127.925 16.3275C128.461 16.3275 127.749 12.4684 128.185 12.4684C128.185 12.0909 128.444 9.3727 129.198 9.3727C129.198 9.15458 129.717 7.41799 129.441 7.41799C129.34 7.14953 128.964 5.34582 129.273 5.34582C129.408 4.88318 129.669 4.46754 130.027 4.14614C130.546 2.72834 128.428 2.40955 128.428 1.60417ZM178.796 19.3309C178.879 19.0372 178.402 17.0238 178.704 17.0238C178.704 16.1848 179.39 15.4634 179.432 14.3308C179.482 13.5842 180.052 13.2821 180.052 12.4851C180.052 11.6882 178.854 11.4616 179.658 10.5137C179.893 10.2284 181.065 7.99685 180.303 7.99685C180.303 7.41799 180.135 5.94985 180.638 5.68978C180.638 4.52366 181.35 3.71829 180.897 2.33404C181.09 2.33404 179.574 1.71323 179.717 1.74679C179.717 1.57061 178.352 1.6629 178.201 1.6629C178.201 0.823963 176.736 0.882688 176.191 0.882688C175.489 1.49218 175.039 2.3414 174.927 3.26526C174.818 4.1042 174.173 4.39782 174.173 5.03541C174.108 5.6422 173.993 6.24263 173.83 6.83073C174.048 6.83073 173.361 8.23175 173.219 8.41632C172.775 8.94485 172.993 9.95157 172.993 10.5975C172.993 11.2435 173.219 16.5959 172.063 16.5959C171.435 17.8963 170.313 17.5355 169.183 17.5691C168.052 17.6026 167.282 20.2705 167.784 20.2705C167.876 20.8325 168.153 20.8913 168.278 21.3946C169.116 22.1581 169.116 21.6715 170.053 21.6631C171.628 21.6211 171.058 24.1799 171.058 25.2453C171.058 25.7151 171.343 28.8611 170.631 28.8611C170.631 29.8595 170.238 30.6313 170.464 31.5122C170.631 32.1498 170.564 33.1313 170.045 33.3998C169.744 34.6414 170.74 35.5558 169.375 36.4871C169.107 37.8629 169.618 38.4334 168.538 39.6918C167.625 40.774 166.109 41.1348 166.377 42.6616C166.57 43.7774 168.052 43.1566 168.446 43.7774C168.588 43.9536 168.362 44.5408 168.613 44.5408C168.739 45.0358 169.015 45.0358 169.124 45.5643C168.655 45.5643 169.677 47.4016 169.794 47.5274C170.305 47.5274 170.489 48.1063 171.142 47.7204C171.653 46.6885 174.173 47.561 174.173 45.6566C174.517 45.6566 174.584 43.1398 174.584 42.8294C175.262 42.8294 175.161 40.1784 175.346 40.1784C175.346 39.8596 175.706 38.4502 176.099 38.4502C176.099 37.4854 176.359 36.3277 176.359 35.6313C177.096 35.128 176.778 33.7773 176.778 32.9216C176.778 31.6045 176.267 28.9115 177.531 28.2571C178.276 25.9584 177.64 23.6765 179.382 22.0909C179.248 20.8325 178.402 20.6564 178.796 19.3309ZM116.931 18.5758C116.763 18.3409 114.418 17.049 114.418 17.5355C113.581 17.5355 113.271 18.2067 112.308 17.9718C111.354 16.7469 110.633 16.856 109.193 16.856C107.753 16.856 107.837 17.5607 106.681 17.7956C106.222 18.1988 105.674 18.4864 105.082 18.6345C105.082 18.9533 103.298 19.6832 102.963 20.0943C102.586 20.0943 100.359 21.2436 100.359 21.5456C98.9772 21.5456 98.165 23.7436 97.2523 24.6077C96.5158 25.1905 95.9632 25.9742 95.6612 26.8645C94.8239 27.6447 94.3717 27.8796 94.4387 28.9283C94.4387 29.4232 94.4387 30.0608 93.9698 30.2957C93.9698 31.3108 93.4925 33.0307 93.6348 34.4401C93.7539 35.5714 93.8098 36.7085 93.8023 37.8461C94.0033 37.8461 94.5308 38.8109 94.4973 39.0878C94.3801 40.0441 95.3347 40.665 95.3347 41.5207C95.812 41.764 96.3144 43.4586 96.5405 44.1298C97.1099 45.8076 98.4078 46.2439 100.133 46.2439C100.133 45.6398 102.812 47.1919 102.905 47.1919C103.189 47.5755 103.579 47.8671 104.027 48.0308C104.764 48.2993 105.048 47.8882 105.802 47.8882C106.555 47.8882 106.706 47.5358 107.209 47.5358C107.209 47.108 109.319 47.3596 109.637 47.3764C109.637 47.8043 111.253 46.613 111.429 46.4116C111.601 46.2665 111.741 46.0861 111.838 45.8826C111.935 45.6792 111.988 45.4573 111.992 45.2318C111.997 45.0063 111.954 44.7823 111.865 44.5749C111.777 44.3675 111.645 44.1814 111.479 44.0291C109.654 43.4083 107.719 43.8445 105.718 43.7858C105.107 43.7858 104.387 42.6197 104.001 42.2002C103.457 41.5626 102.93 41.6465 102.226 41.4619C102.117 40.8999 102.226 40.623 101.849 40.1868C101.665 39.9519 101.221 39.7002 101.221 39.3982C101.079 39.2052 100.97 39.1045 100.97 38.8948C100.376 38.8948 100.97 36.6716 101.012 36.1767C101.012 34.8847 100.585 33.383 100.845 32.2924C100.953 31.8813 101.925 29.1128 101.481 29.1128C101.481 28.6766 101.925 28.4668 102.226 28.1816C102.226 27.8041 102.226 27.4266 102.277 27.0658C102.335 25.9836 102.863 25.5725 103.583 24.8426C104.475 23.6258 105.552 22.5558 106.773 21.6715C107.041 21.6715 108.197 21.0591 108.197 20.7151C108.632 20.7151 110.893 20.7822 110.893 20.1195C111.513 20.1195 113.338 19.4735 113.338 20.7151C114.636 20.7067 118.823 21.1597 116.931 18.5758ZM91.2567 21.5624C91.2567 21.1346 90.4193 19.2554 89.741 19.2554C89.5401 18.9701 88.9706 18.3157 88.6524 18.3157C88.6524 18.106 87.5555 18.1396 87.3964 17.7956C86.5634 17.6896 85.7224 17.6615 84.8843 17.7117C84.8843 17.8711 84.206 17.9718 84.0469 17.9718C84.0469 17.5271 81.3003 18.8107 81.1077 18.8107C81.1077 18.9617 79.5921 19.3141 79.299 19.6496C78.6375 20.4299 79.0729 20.8829 79.5083 21.4617C79.7679 21.4617 80.0945 21.8644 80.4294 21.9651C80.4294 22.1581 81.585 22.0658 81.7357 22.0658C82.2465 22.0658 82.9248 21.8896 83.3519 22.2587C83.6013 22.5597 83.9287 22.7861 84.2981 22.9131C84.3771 23.5137 84.4051 24.1199 84.3818 24.7252C84.4572 24.7252 84.7168 25.1866 84.7168 25.3125C85.3029 25.6145 84.5409 27.6363 84.8843 27.6363C84.8843 28.4752 85.0517 29.6497 85.0517 30.7152C85.0517 31.7806 85.4955 34.0709 84.7168 34.5743C84.4063 35.864 84.2934 37.1935 84.3818 38.5173C84.2478 38.5173 83.7957 39.2807 83.7957 39.4569C83.5863 39.4569 83.3854 41.6465 83.2849 42.024C83.1006 42.024 82.615 43.0475 82.615 43.316C82.0623 43.316 82.4642 45.5979 82.9499 45.9754C82.9499 46.2774 83.6952 46.915 83.871 47.259C84.5409 47.5945 84.7084 48.2154 85.6463 47.6952C85.6463 47.217 87.5555 47.1835 87.9155 47.1835C88.5352 46.5962 88.7529 46.5123 88.9204 45.6314C88.6441 45.8747 89.6405 44.9435 89.5987 44.9435C89.5987 44.264 89.2637 42.6197 89.9336 42.2925C90.2434 40.9586 90.3021 39.7757 90.6035 38.5173C91.5414 38.5173 90.8547 33.7102 91.1897 33.7102C91.1897 33.2152 91.4576 31.5206 92.0271 31.1934C92.228 30.5558 91.9684 27.3259 92.8644 27.3259C92.9817 26.9484 93.1994 23.6681 92.8644 23.6681C92.8644 23.1732 91.6921 21.9064 91.2567 21.5624ZM146.674 27.3091C147.001 27.3091 147.034 26.2772 147.26 26.2772C147.511 25.5474 146.582 24.5994 146.582 23.7604C146.582 23.1648 146.858 21.8393 146.331 21.5624C146.063 20.802 145.601 20.1252 144.991 19.5993C144.991 18.6094 143.149 17.8795 142.479 17.8795C142.479 17.3845 137.739 17.6278 137.002 17.6278C136.24 18.4667 134.934 18.3409 134.298 19.6496C133.36 21.5624 137.237 21.8477 137.856 22.7705C138.409 22.7705 138.543 23.6765 138.937 23.8863C139.464 24.4651 138.861 24.8594 138.861 25.3376C138.861 25.3376 138.685 31.8729 138.685 32.5944C138.685 33.3159 138.811 39.0458 138.752 39.0458C138.711 39.2891 138.25 40.774 138.016 40.774C137.856 41.6885 137.228 42.0492 137.178 42.9133C137.175 43.3843 137.272 43.8505 137.463 44.2808C138.116 44.2808 137.798 46.3445 138.133 46.3445C138.133 47.4519 140.36 48.1818 141.239 47.8043C141.239 47.5862 142.412 47.2086 142.588 47.2086C142.922 46.6794 143.347 46.2136 143.844 45.8328C144.097 45.1711 144.269 44.4809 144.355 43.7774V39.2304C144.572 39.2304 145.024 37.1414 145.024 36.7136C145.024 36.4787 144.949 34.8428 145.117 34.8428C145.117 34.3813 145.611 34.4233 145.611 34.0038C146.021 33.8109 145.611 31.185 145.862 31.185C146.034 30.7629 146.291 30.3803 146.615 30.0608C146.582 29.1632 146.674 28.0725 146.674 27.3091ZM258.924 26.6296C259.468 26.6296 259.51 24.5406 259.51 24.1128C258.552 23.3123 257.79 22.302 257.283 21.1597C256.521 18.8443 254.302 17.9634 252.108 17.804C252.108 18.2906 248.658 18.106 248.658 18.6429C247.67 18.6429 245.836 19.4819 245.35 20.4215C245.229 20.6787 245.191 20.9676 245.242 21.2476C245.293 21.5276 245.43 21.7844 245.635 21.9819C246.02 21.9819 246.347 22.7285 246.816 22.8208C247.402 23.3913 248.139 22.3762 248.49 22.0658C248.922 22.159 249.324 22.3569 249.661 22.6422C249.998 22.9274 250.26 23.2912 250.425 23.7017C250.609 23.7017 250.642 25.0524 250.927 25.0524C250.875 26.5685 250.903 28.0863 251.011 29.5994C251.111 30.1783 251.689 30.3461 251.689 30.7991C251.865 30.7991 251.773 32.0659 251.773 32.2169C251.773 33.0558 251.924 33.4585 251.346 34.1045C250.768 34.7505 250.927 34.9434 250.927 35.7152C250.927 35.9501 250.86 36.8981 250.592 36.8981C250.592 37.9216 250.173 39.3478 250.173 40.6566C249.395 41.0509 250.098 42.5358 249.252 42.972C249.252 43.8865 247.728 44.5492 248.775 45.6902C249.174 46.1831 249.533 46.7078 249.847 47.259C250.307 47.5778 250.736 47.9402 251.128 48.3412C251.876 48.1366 252.637 47.9825 253.406 47.8798C254.419 47.8798 254.754 47.0409 255.499 46.5375C255.499 46.2187 255.323 44.4905 255.75 44.4905C255.895 44.1787 256.094 43.8948 256.336 43.6516C256.336 42.9217 255.96 40.5475 256.588 40.2371C256.588 39.826 257.098 39.0206 257.098 38.5089C257.509 38.5089 257.492 34.9686 257.81 34.3142C258.128 33.6599 258.087 30.9585 258.522 30.9585C258.522 30.7739 258.807 30.1195 258.949 30.1195C258.957 29.0457 258.664 27.5189 258.924 26.6296ZM43.2501 43.5928C42.5661 42.8122 41.8121 42.0962 40.9975 41.4536C40.2188 40.816 40.001 40.9334 39.9759 39.8596C39.9759 39.6582 40.0848 38.6347 39.8922 38.6347C39.8922 37.67 39.7582 36.5206 39.7247 35.4468C39.9508 35.4468 39.0297 33.7689 39.1302 33.4837C39.3311 32.9384 40.4197 32.6447 40.537 32.0239C40.6123 31.5793 40.0848 29.3729 40.8133 29.3729C41.1231 28.534 40.9054 28.534 40.9054 27.9132C40.3444 27.6279 40.6458 26.0591 40.6458 25.3963C40.6623 24.3581 40.8873 23.3338 41.3073 22.3846C41.3073 21.294 41.3911 20.4382 41.3073 19.3896C40.9644 18.8537 40.4725 18.4299 39.8923 18.1706C39.312 17.9112 38.6687 17.8275 38.0416 17.9298C38.0416 18.1815 36.3668 18.9366 36.3668 19.6077C36.1324 19.6077 35.8895 21.403 35.362 21.6715C35.362 23.2655 34.6 25.0272 34.6 26.6548C34.6 27.2336 34.667 31.8813 34.0138 31.8813C34.0138 32.7202 33.5951 33.3075 33.5951 34.5323C33.4612 34.5323 33.0425 35.6481 32.8415 35.6481C32.9336 36.831 32.2553 37.477 32.2553 38.5676C32.2553 39.029 32.7159 41.5878 33.009 41.7388C33.009 41.6717 34.0222 43.5257 33.5951 43.5257C33.5951 44.0039 34.1562 44.5073 34.5246 44.8177C35.1597 45.3697 35.8668 45.8325 36.6264 46.1935C36.6264 46.1935 38.2258 46.9318 38.2258 47.217C38.7701 47.41 39.6242 47.0073 39.9006 47.5694C41.3325 48.467 42.1196 47.5694 43.3422 47.1415C43.719 46.3529 45.4942 46.0174 44.8913 44.8764C44.6233 44.4485 43.7441 43.5928 43.2501 43.5928ZM61.4964 18.6513C61.0526 18.0473 57.4603 17.7285 57.4603 18.1396C56.6229 18.3577 56.5392 18.903 55.5259 18.9785C55.5259 19.8174 54.856 18.9785 55.1491 19.9517C55.3538 20.5202 55.4669 21.1177 55.4841 21.7218C55.4338 22.5607 54.6467 22.7957 54.5546 23.6514C54.4548 24.2978 54.4919 24.9581 54.6634 25.5893C54.8142 26.1178 54.563 28.836 54.2615 28.836C54.2615 29.2638 54.0103 29.44 54.0103 29.9434C53.8093 29.9434 53.9266 32.7874 53.9266 33.1062C53.9266 33.4249 53.3069 36.034 53.3404 36.034C53.3404 36.7304 52.6621 37.133 52.6621 37.9216C52.3104 37.9216 51.7326 39.3982 51.6573 39.717C51.1549 39.717 51.5065 42.8881 51.9085 42.8881C51.9085 44.91 52.5616 45.4049 53.7507 46.7472C54.0059 46.8412 54.2375 46.9901 54.429 47.1835H56.2796C56.6299 46.863 57.0283 46.5997 57.4603 46.4033C57.4603 46.3026 58.2976 45.2875 58.2223 45.2875C58.2437 44.7256 58.2968 44.1654 58.3814 43.6096C59.2188 43.3663 59.3109 42.0156 59.3109 41.4703C60.4078 40.9082 59.6542 40.2707 59.1434 39.675C59.1434 38.6851 59.9808 38.4669 59.9808 37.4518C59.9808 36.4367 60.1315 35.5391 60.1901 34.5743C60.2536 34.0846 60.3802 33.6052 60.5669 33.1481C60.5669 33.1481 60.659 30.9753 60.659 30.6313C60.659 30.0189 60.3576 25.3544 60.8181 25.3544C60.8181 24.9014 61.4964 24.8343 61.6555 24.3393C61.6555 24.3393 61.7309 22.1748 61.7309 21.9315C63.1377 21.1849 62.4845 19.4064 61.4964 18.6513ZM70.1297 18.1396C69.4515 17.9969 69.0495 18.408 68.6392 18.408C68.3964 18.903 67.3413 19.4986 66.8807 19.9517C66.8807 20.2788 66.6714 20.7235 66.6211 21.2268C66.2192 21.2268 65.8675 23.4584 65.3651 23.7436C65.0897 25.0986 65.2298 26.5052 65.767 27.7789C65.9931 28.341 65.1641 30.4971 64.6868 30.4971C64.377 31.3947 65.5242 31.9316 65.1976 32.8209C65.0193 33.0504 64.8755 33.3048 64.7705 33.576C64.176 33.576 64.2011 36.68 63.9834 36.9317C63.7378 37.243 63.4567 37.5245 63.146 37.7706C63.146 38.4837 62.8446 40.2874 63.8997 40.2874C64.0755 41.2774 64.1844 42.3009 63.2298 42.863C63.1795 43.6264 63.1125 44.4066 63.1377 45.1784C63.1628 45.9502 64.578 47.2086 65.4153 47.4855C66.2527 47.7623 67.2324 46.9737 67.8437 46.462C67.8437 46.0509 68.3378 45.9586 68.4466 45.514C68.6141 45.514 68.4466 44.1214 68.4466 43.9704C69.284 43.9704 69.2003 41.5458 69.2003 41.0592C69.3845 41.0592 69.351 40.2203 69.5268 40.2203C69.5268 40.0525 69.5268 39.0878 69.7027 39.0878C69.7027 38.6935 70.2051 38.7354 70.2051 38.3327C70.4814 38.1901 70.3307 35.3209 70.8834 35.3209C70.8834 34.482 70.8834 32.8041 71.7207 32.2421C71.8715 31.6128 71.7207 26.0591 72.1394 26.0591C72.1394 24.6916 73.563 24.0457 73.7137 22.8376C73.8644 21.6295 72.1478 20.6899 71.8045 19.6413C71.1681 19.1463 71.0257 18.3157 70.1297 18.1396ZM209.561 43.7774C209.36 43.3495 206.982 40.9502 206.446 40.9502C206.446 40.3378 206.797 37.5106 206.287 37.5106C206.101 36.966 205.972 36.4037 205.901 35.8327C205.901 35.2622 205.374 34.2135 205.7 33.5927C206.086 33.2907 207.015 32.7538 207.099 32.2337C207.208 31.6045 206.379 31.1263 206.563 30.6061C206.823 29.8595 207.208 29.9769 207.208 29.1296V27.2336C206.873 27.2336 206.513 26.1682 206.571 25.8074C206.689 25.0776 207.317 25.0524 207.258 24.3309C207.183 23.2319 207.492 23.3997 208.053 22.6027C208.053 21.5121 208.715 20.0859 207.744 19.247C207.272 18.8176 206.717 18.4902 206.113 18.2852C205.51 18.0802 204.87 18.0021 204.235 18.0557C203.773 18.6106 203.266 19.1268 202.719 19.5993C202.719 19.8426 202.259 20.8913 201.957 20.8913C201.957 22.0406 201.547 22.502 201.547 23.3577C201.346 23.3577 201.48 28.3913 201.296 28.3913C201.188 29.3311 200.96 30.2531 200.618 31.1347C200.502 31.8048 200.245 32.4425 199.864 33.0055C199.864 34.5156 198.935 35.6985 198.935 36.9988C198.935 37.8377 198.097 37.8377 198.298 38.6767C198.482 39.0213 198.695 39.3497 198.935 39.6582C198.935 40.0022 198.792 41.6213 199.102 41.6213C199.208 42.6668 199.564 43.6712 200.14 44.5492C200.5 44.9016 201.078 45.6566 201.547 45.6566C202.075 46.269 203.054 46.4955 203.398 47.2086C204.989 47.4016 205.91 48.316 207.585 48.316C208.229 48.316 208.38 47.8043 209.008 47.8043C209.402 46.9653 210.758 47.368 211.035 46.2606C211.797 46.2606 210.775 44.6834 210.524 44.4653C210.297 44.1263 209.955 43.8817 209.561 43.7774ZM228.243 19.1631C227.054 17.7201 225.873 18.1396 223.947 18.0557C222.632 18.9533 221.033 19.5406 221.627 21.1094C222.222 22.6782 220.79 23.148 220.79 24.5742C220.79 24.8594 221.451 26.7219 221.133 26.7219C221.133 26.8813 220.999 27.5608 220.79 27.5608C220.79 28.341 220.79 29.4736 220.79 30.3964C220.79 31.3192 220.204 31.6045 220.053 32.5273C220.024 33.5271 219.869 34.5193 219.593 35.4803C219.157 36.1095 219.593 37.3176 219.04 37.5777C219.04 37.9552 218.621 37.8965 218.621 38.274C218.437 38.274 218.462 39.1129 218.454 39.2975C217.549 39.2975 217.047 42.7371 217.616 42.7371C217.616 43.5761 218.537 43.9368 218.537 45.0358C219.249 45.665 219.274 47.1919 220.212 47.1919C220.212 47.4603 222.498 47.41 222.808 47.3261C223.52 47.1331 223.813 46.4872 224.324 46.2439C224.659 44.566 225.839 43.1398 225.839 41.4116C225.839 40.816 225.513 38.8948 226.007 38.618C226.007 38.5173 226.568 37.4938 226.434 37.4938C226.434 36.4535 226.518 35.1532 226.518 33.9786C226.61 33.9786 226.936 33.4417 226.936 33.2991C227.162 33.2991 227.028 26.4366 227.028 25.9249C227.799 25.0859 228.368 24.7504 228.368 23.6178C228.368 23.45 228.276 22.0742 228.444 22.0742C228.527 21.747 228.695 21.7218 228.695 21.4701C229.591 21.0507 228.728 19.4315 228.243 19.1631ZM238.073 19.4315C237.236 18.5926 237.236 18.1563 235.963 18.0557C235.963 17.8459 234.523 18.8946 234.54 18.8946C234.54 19.205 233.258 19.9265 233.108 20.5221C232.796 20.7741 232.575 21.122 232.48 21.5121C232.44 21.9502 232.44 22.3911 232.48 22.8292C231.642 22.8292 231.718 24.4484 231.718 25.0608C231.718 26.0843 232.22 29.7924 231.383 30.2118C231.148 31.638 231.885 32.3092 231.215 33.7186C230.621 33.7186 230.487 37.1498 229.867 37.1498C229.867 37.8797 229.867 38.1314 229.314 38.6347C229.214 38.6988 229.133 38.7881 229.078 38.8937C229.023 38.9994 228.997 39.1175 229.002 39.2365C229.007 39.3554 229.043 39.4709 229.107 39.5714C229.171 39.672 229.259 39.754 229.365 39.8092C229.976 40.4552 230.487 41.1683 230.009 42.066C229.532 42.9636 230.16 43.6683 229.113 44.264C229.055 45.2371 228.887 46.2271 230.118 46.4955C230.294 47.1331 232.806 48.056 232.806 47.4352C233.044 47.3946 233.272 47.3061 233.475 47.1748C233.678 47.0436 233.852 46.8724 233.987 46.6717C234.314 46.2271 234.255 46.0677 234.255 45.5475C234.255 45.2036 234.908 44.7086 235.092 44.524C235.092 44.2891 235.025 42.6448 235.184 42.6448C235.302 42.175 235.553 42.217 235.762 41.8059C235.935 41.366 236.078 40.9147 236.189 40.4552C236.189 38.8864 236.943 38.0475 236.943 36.6884C236.943 35.6817 237.454 35.5726 237.621 34.7001C237.668 33.8671 237.782 33.0394 237.964 32.2253C238.199 32.2253 238.207 27.1917 238.207 26.6548C238.994 26.2521 238.777 24.8678 239.472 24.5071C239.595 24.133 239.828 23.8052 240.142 23.5675C240.276 22.8963 239.899 22.4936 239.899 21.9399C238.994 21.1597 238.986 20.2117 238.073 19.4315ZM199.99 20.455C200.383 20.455 199.152 19.0121 199.052 18.9114C198.298 18.7184 197.955 17.8292 197.034 18.4835C196.632 19.096 195.359 19.3225 195.359 20.1614C194.522 20.908 194.094 21.8393 193.265 22.393C193.265 22.8376 192.286 23.6681 191.825 23.5591C191.566 23.4836 191.482 23.2319 191.222 23.0893C190.653 22.7873 190.234 23.0893 189.807 23.601C189.045 23.4584 189.246 22.2252 188.886 22.2252C188.886 22.0574 188.886 20.8577 188.727 20.8577C188.727 20.4047 188.132 20.4299 188.132 20.0188C187.99 20.0188 187.462 18.9449 186.96 18.8191C186.96 18.6429 186.165 18.3912 186.031 18.3912C186.031 17.762 183.753 19.0037 183.594 19.1547C183.594 19.0456 182.246 21.3862 182.756 21.3862C182.756 21.554 182.103 22.7621 182.262 22.7621C182.245 22.8989 182.2 23.0307 182.129 23.1491C182.059 23.2675 181.964 23.37 181.852 23.45C181.726 24.0289 181.693 24.6161 181.592 25.2369C180.42 25.5641 181.132 27.9887 180.579 27.9887C180.579 28.4836 180.035 28.5256 180.228 29.2303C180.479 30.2789 181.492 30.1951 180.939 31.487C180.546 32.4015 180.152 32.2672 180.186 33.4166C180.186 34.0122 179.943 39.2891 180.42 39.2891C180.42 39.9183 180.161 40.6062 180.161 41.269C180.161 41.9317 179.667 42.326 179.667 43.1398C179.415 43.1398 178.955 44.3059 178.645 44.5157C178.218 45.1449 178.109 45.8999 178.729 46.3194C179.29 46.9001 180.005 47.3101 180.789 47.5023C180.789 47.7456 181.383 47.6701 181.383 47.8546C182.949 48.3915 185.277 47.3177 185.361 45.5727C185.361 44.7338 185.361 44.1549 186.005 43.6599C186.26 43.0645 186.29 42.3965 186.089 41.7807C185.109 41.2774 185.964 40.5978 186.173 39.9686C186.173 39.18 185.863 37.9216 186.508 37.4518C186.508 36.873 186.843 36.1179 186.843 35.3042C186.843 34.3142 186.935 33.0978 186.935 32.2253C188.082 31.2521 187.613 30.0944 188.526 28.9702C189.28 28.9702 189.975 27.1749 190.804 27.1749C191.172 26.7554 191.691 25.8242 192.319 25.9081C192.462 25.9081 193.316 26.2017 193.316 25.9081C193.723 25.7977 194.121 25.6547 194.505 25.4802C195.694 25.1782 196.397 23.945 197.519 23.945C198.616 22.5691 199.571 22.3846 199.99 20.455ZM160.206 43.6851C159.025 43.6851 158.28 43.6348 157.518 42.7791C157.158 42.3764 155.91 40.9502 155.5 40.9502C154.972 40.3294 154.143 39.6666 154.219 38.8864C154.36 37.9776 154.452 37.0619 154.495 36.1431C153.591 36.1431 154.998 33.8864 154.998 33.6263C155.358 33.6263 154.386 30.7991 155.09 30.7991C155.182 29.6833 154.864 28.7353 155.157 27.8125C155.467 27.5795 155.68 27.2382 155.751 26.8561C156.036 26.3947 157.267 25.1782 157.267 24.7252C158.196 24.247 158.799 22.695 159.461 21.8896C160.214 21.8896 160.884 20.4886 160.775 19.9181C160.625 19.1379 159.419 18.8778 158.782 18.8862C158.782 18.6261 156.949 20.1698 156.932 20.1698C156.547 20.9416 155.182 21.3275 154.57 22.0154C154.252 22.393 152.645 23.0977 152.645 23.6094C152.196 23.9411 151.822 24.3633 151.546 24.8489C151.271 25.3344 151.1 25.8725 151.045 26.4282C150.744 26.5876 150.685 27.6363 150.534 27.6363C150.04 28.2655 148.7 28.9534 148.566 29.8091C148.5 30.2957 148.324 32.6783 147.729 32.6783C147.729 32.8545 147.419 33.5172 147.31 33.5172C147.329 34.2673 147.276 35.0173 147.151 35.7572C146.925 35.7572 146.473 37.284 146.473 37.5525C146.473 38.0643 146.641 38.7354 146.641 39.2304C147.243 39.7421 147.31 39.8596 147.31 40.6062C147.721 40.6062 148.667 42.5609 148.667 42.9972C149.295 43.3244 149.312 44.5744 149.923 44.8848C149.923 45.7237 152.025 46.4704 152.025 46.7724C152.444 46.7724 154.369 46.9654 154.369 47.4519C155.092 47.7176 155.853 47.8622 156.622 47.8798C156.99 47.8798 158.992 48.0224 158.992 47.7204C159.745 47.7204 160.332 46.957 161.018 46.6046C161.546 45.7657 161.102 45.3043 161.102 44.4653C161.001 44.3395 160.206 43.7187 160.206 43.6851ZM284.908 43.3076C284.623 42.1583 283.149 41.3277 282.546 40.3965C281.6 39.7505 281.29 38.5508 280.453 37.7706C279.598 37.109 279.026 36.1462 278.853 35.0777C278.853 33.232 277.338 32.8461 277.338 31.0592C277.597 31.0592 278.812 29.2051 278.937 28.8276C279.507 28.8276 280.068 26.487 280.704 26.1682C280.859 25.6672 281.113 25.2023 281.449 24.8007C281.449 23.5926 280.31 23.5675 279.431 23.601C278.948 24.0969 278.336 24.4483 277.664 24.6161C277.361 25.1129 276.883 25.478 276.325 25.6396C276.266 25.7823 274.574 27.8796 274.558 27.8796C274.558 28.4333 272.707 30.1112 272.121 30.1112C271.342 30.69 271.619 32.0575 271.619 32.8796C271.619 33.7018 271.962 34.4149 271.962 34.9854C271.635 34.9854 273.469 37.3176 273.469 37.3176C273.846 37.6364 274.608 38.6012 275.069 38.6012C275.53 39.0896 275.899 39.6582 276.157 40.279C276.509 40.5132 276.784 40.8453 276.949 41.2344C277.114 41.6235 277.162 42.0526 277.087 42.4687C277.285 42.5948 277.445 42.7737 277.549 42.9855C277.652 43.1972 277.695 43.4336 277.673 43.6683C278.133 43.6683 278.016 45.7153 278.359 45.7153C278.77 47.3932 281.935 48.5174 283.384 47.9553C283.384 47.8966 284.958 47.2758 284.983 46.462C285.031 45.41 285.006 44.356 284.908 43.3076Z" fill="white"/>
</svg>
